inDegrees=no
num_controls=7
num_derivatives=13
num_iterations=88
num_multipliers=7
num_parameters=0
num_slacks=7
num_states=26
objective=5.298810
objective_accelerations=0.444672
objective_balance=0.011805
objective_effort=0.381814
objective_height=4.390597
objective_ligament=0.069923
solver_duration=756.988268
status=Solve_Succeeded
success=true
DataType=double
version=3
OpenSimVersion=4.4-2022-07-23-0e9fedc
endheader
time	/jointset/ground_pelvis/pelvis_tilt/value	/jointset/ground_pelvis/pelvis_tx/value	/jointset/ground_pelvis/pelvis_ty/value	/jointset/hip_r/hip_flexion_r/value	/jointset/hip_r/hip_adduction_r/value	/jointset/hip_r/hip_rotation_r/value	/jointset/back/lumbar_extension/value	/jointset/patellofemoral_r/patellar_flexion_r/value	/jointset/knee_r/knee_flexion_r/value	/jointset/knee_r/knee_adduction_r/value	/jointset/knee_r/knee_rotation_r/value	/jointset/ankle_r/ankle_angle_r/value	/jointset/subtalar_r/subtalar_angle_r/value	/jointset/ground_pelvis/pelvis_tilt/speed	/jointset/ground_pelvis/pelvis_tx/speed	/jointset/ground_pelvis/pelvis_ty/speed	/jointset/hip_r/hip_flexion_r/speed	/jointset/hip_r/hip_adduction_r/speed	/jointset/hip_r/hip_rotation_r/speed	/jointset/back/lumbar_extension/speed	/jointset/patellofemoral_r/patellar_flexion_r/speed	/jointset/knee_r/knee_flexion_r/speed	/jointset/knee_r/knee_adduction_r/speed	/jointset/knee_r/knee_rotation_r/speed	/jointset/ankle_r/ankle_angle_r/speed	/jointset/subtalar_r/subtalar_angle_r/speed	/forceset/tau_hip_flexion_r	/forceset/tau_hip_adduction_r	/forceset/tau_hip_rotation_r	/forceset/tau_knee_flexion_r	/forceset/tau_ankle_angle_r	/forceset/tau_subtalar_angle_r	/forceset/tau_lumbar_extension	lambda_cid13_p0	lambda_cid14_p0	lambda_cid14_p1	lambda_cid14_p2	lambda_cid14_p3	lambda_cid14_p4	lambda_cid14_p5	/jointset/ground_pelvis/pelvis_tilt/accel	/jointset/ground_pelvis/pelvis_tx/accel	/jointset/ground_pelvis/pelvis_ty/accel	/jointset/hip_r/hip_flexion_r/accel	/jointset/hip_r/hip_adduction_r/accel	/jointset/hip_r/hip_rotation_r/accel	/jointset/back/lumbar_extension/accel	/jointset/patellofemoral_r/patellar_flexion_r/accel	/jointset/knee_r/knee_flexion_r/accel	/jointset/knee_r/knee_adduction_r/accel	/jointset/knee_r/knee_rotation_r/accel	/jointset/ankle_r/ankle_angle_r/accel	/jointset/subtalar_r/subtalar_angle_r/accel	gamma_cid13_p0	gamma_cid14_p0	gamma_cid14_p1	gamma_cid14_p2	gamma_cid14_p3	gamma_cid14_p4	gamma_cid14_p5
1.5	-0.02782612547391285	0.05341258635766931	0.8452838244014583	0.6639588714414508	-0.217584701715724	-0.1542047623447556	-0.611036141985406	0.8415072557973533	0.8415072557973886	-0.04711131905484034	0.1745268664272109	0.2965349696256875	0.1481961811778899	0.3223019481045321	0.1880598588562112	0.3911415343615218	-1.616446722152619	0.01106934595423765	-0.1394183062989579	0.8011207261336845	-1.705433226641581	-1.705433226641293	0.4447418329971933	-9.471506990163666e-05	-0.5179167747013977	-0.1952020706938057	-0.1244549699308097	0.007596898147244346	0.01788605388723527	-0.2965512190479123	0.005110686243137857	-0.006813923357109964	0.1908174710467612	-14.48963415051985	-41.31879107506225	-9.037609892621216	0.5420052949190765	-0.8250747509371182	-636.6436621397471	60.35653173529545	-0.01746007623151108	0.4200930771773718	-0.4018001606564576	-0.7850494549145205	-0.2075162386722119	-0.6252206232373426	1.554458772972729	-1.159451103560985	-1.159451103560994	0.3511999103228664	-0.007505458771223897	-0.4933461196271532	-0.3145441487065078	6.659994079880093e-08	6.70168316787487e-08	-2.926458304847709e-07	9.173353493014045e-07	-4.691979153417628e-09	1.555895324653225e-07	-4.07472138620589e-07
1.51	-0.02460432813664341	0.05531399145494719	0.8491743517335886	0.6477570275229623	-0.2174849209556149	-0.1556301132545691	-0.6029484936013236	0.8243972415147222	0.8243972415147668	-0.04264561120009745	0.1745261929346116	0.2913317563689107	0.14622798845914	0.3220084057442871	0.1921989895983999	0.3868825920139118	-1.623703180937254	0.008882793616377527	-0.1456538700015632	0.8162947336623773	-1.716328142399827	-1.716328142399575	0.4483617285128878	-4.560559830743761e-05	-0.5226438416692558	-0.1983966781252064	-0.1183052033617994	0.005883799180601782	0.01770744629450068	-0.2935450988113116	0.00752807702847927	-0.007521890969295336	0.1850219288710003	-15.34713473894824	-40.33427852391171	-9.035317830792557	0.3847173608061183	-1.09238878019626	-632.9447955357704	60.28317282304313	-0.04266421059512224	0.4075054295193684	-0.4501112630950249	-0.6631060092633382	-0.2247690464781766	-0.6228866225938399	1.481739190704998	-1.018304953620702	-1.018304953626252	0.3616080205476785	0.01038862342298883	-0.4500582163398071	-0.3159716190991615	7.631747885911457e-08	5.567384740512888e-08	-5.354661744431574e-07	7.669044293746997e-07	2.483438613830749e-08	1.552548063676204e-07	-5.352877486612428e-07
1.52	-0.02138693880188378	0.05725612433100391	0.8530198556439861	0.6314891866328357	-0.2174071145819046	-0.1571178522771944	-0.5947125316523725	0.8071855194461964	0.8071855194462162	-0.03814485966052711	0.1745258644312309	0.2860837381962664	0.1442290391503273	0.3214203475970231	0.1962054146119771	0.3821368500150693	-1.629646116482897	0.006674468673151344	-0.1518959288570483	0.8307834391065193	-1.725774783824634	-1.725774783824418	0.4517505699627909	-2.571719476540184e-05	-0.5268777578761086	-0.2013533887063129	-0.1121554367928422	0.004170700213823709	0.01752883870175441	-0.2905389785747001	0.009945467813789232	-0.008229858581699473	0.1792263866952087	-16.19900933402776	-39.35253377935433	-9.033294480181528	0.2272255171501525	-1.367643930529903	-629.2824771125668	60.25060919277294	-0.07636323363437351	0.3935519314543406	-0.4991600909030052	-0.5223448071157152	-0.2118707597455821	-0.6265196538138459	1.417398356063057	-0.8697962368728085	-0.8697962368728112	0.304989097164496	-0.01334967238089101	-0.3947159674269863	-0.2669647786482108	8.196226829264444e-08	4.786704066098949e-08	-6.923738254996862e-07	6.534454115279549e-07	4.418921025952434e-08	1.56060815091965e-07	-6.127003583561476e-07
1.53	-0.01817684819585813	0.05923753677394795	0.8568155154324999	0.6151685689451507	-0.2173514460264617	-0.1586682308064589	-0.5863353104605249	0.7898866176227161	0.7898866176227444	-0.03361157445921975	0.1745257135010278	0.2807957824296947	0.1422017541682566	0.320553555514787	0.2000425535846849	0.3769179847494352	-1.634246205290635	0.004454684927743055	-0.1581670485204852	0.8445263552825562	-1.733750306770331	-1.733750306770145	0.4548792277453304	-1.040866891761674e-05	-0.5306368151430552	-0.2040700582949191	-0.106171758902354	0.00288913206255332	0.0173083549124794	-0.2871358343837833	0.01169166706803766	-0.009160223000369744	0.1735002447988719	-17.04372683610536	-38.6195466471417	-9.183540681245743	0.1078616625854706	-1.357768006317266	-625.7432313712235	59.88569308167992	-0.09846698753099815	0.3736282816866972	-0.5447863534230001	-0.3941540192800619	-0.227694163206139	-0.6253726466802023	1.332571652309064	-0.7231560051172917	-0.7231560051218138	0.3126218893899723	0.008162774114364665	-0.3549853562207356	-0.2690462538156381	8.327976231021662e-08	4.381742254192301e-08	-7.579992403479925e-07	5.792690396411672e-07	5.273677188707628e-08	1.580788545647344e-07	-6.365597801836943e-07
1.54	-0.01497675146902907	0.06125628728692172	0.8605566792465512	0.5988088877490674	-0.2173181077047231	-0.160280913437186	-0.5778246934261251	0.7725156154334665	0.7725156154334503	-0.02904783912596923	0.1745255539877293	0.2754725391404796	0.1401482968493296	0.3194215717519777	0.2036730286179217	0.3712376551226784	-1.637458818165456	0.002208421931665534	-0.1643567491467857	0.8574626076159415	-1.740194856983982	-1.740194856983826	0.4578405963515281	-2.743378119227074e-05	-0.5339352624056991	-0.2065878560774853	-0.1001880810119112	0.001607563911178523	0.01708787112307018	-0.2837326901928698	0.01343786632226156	-0.01009058741920406	0.1677741029025092	-17.880045804506	-37.88816871767906	-9.333514979656483	-0.01217812784930705	-1.358127472237728	-622.2320030150194	59.55692056121406	-0.1294015697479954	0.3522191435593751	-0.5914529631275885	-0.2448496205322329	-0.2171666098794523	-0.6102358463868452	1.256065587533279	-0.5636016904635082	-0.5636016904634396	0.2715312618960136	-0.01981640000499107	-0.3025939665673948	-0.2271904174405886	8.62785349997111e-08	3.890389417085515e-08	-8.549123742565255e-07	4.819579741867476e-07	6.488028317040604e-08	1.580546962422099e-07	-6.671213833990434e-07
